# xmcd CD database file
#
# Track frame offsets:
#	150
#	31182
#	54961
#	78638
#	121889
#	154245
#	177609
#	206014
#	246737
#	273935
#
# Disc length: 4112 seconds
#
# Revision: 0
# Processed by: cddbd v1.5.2PL0 Copyright (c) Steve Scherf et al.
# Submitted via: CDex 1.78
#
DISCID=8c100e0a
DTITLE=Chano Dominguez - Over the Rainbow
DYEAR=2017
DGENRE=Jazz
TTITLE0=Django
TTITLE1=Duerme Negrita
TTITLE2=Evidence
TTITLE3=Gracias a la vida
TTITLE4=Hacia donde
TTITLE5=Los ejes de mi carreta
TTITLE6=Mantreria
TTITLE7=Marcel
TTITLE8=Monk's dream
TTITLE9=Over the Rainbow
EXTD=YEAR: 2017
EXTT0=
EXTT1=
EXTT2=
EXTT3=
EXTT4=
EXTT5=
EXTT6=
EXTT7=
EXTT8=
EXTT9=
PLAYORDER=
